<svg version="1.1" xmlns="http://www.w3.org/2000/svg" xmlns:xlink="http://www.w3.org/1999/xlink" width="16" height="16" viewBox="0,0,256,256"><g fill="#c6c6c6" fill-rule="nonzero" stroke="none" stroke-width="1" stroke-linecap="butt" stroke-linejoin="miter" stroke-miterlimit="10" stroke-dasharray="" stroke-dashoffset="0" font-family="none" font-weight="none" font-size="none" text-anchor="none" style="mix-blend-mode: normal"><g transform="scale(16,16)"><path d="M16,8c0,0 -3,-5.5 -8,-5.5c-5,0 -8,5.5 -8,5.5c0,0 3,5.5 8,5.5c5,0 8,-5.5 8,-5.5zM1.173,8c0.48351,-0.73488 1.03964,-1.41931 1.66,-2.043c1.287,-1.289 3.047,-2.457 5.167,-2.457c2.12,0 3.879,1.168 5.168,2.457c0.62036,0.62369 1.17649,1.30812 1.66,2.043c-0.058,0.087 -0.122,0.183 -0.195,0.288c-0.335,0.48 -0.83,1.12 -1.465,1.755c-1.289,1.289 -3.049,2.457 -5.168,2.457c-2.12,0 -3.879,-1.168 -5.168,-2.457c-0.62035,-0.62369 -1.17648,-1.30813 -1.66,-2.043z"></path><path d="M8,5.5c-1.38071,0 -2.5,1.11929 -2.5,2.5c0,1.38071 1.11929,2.5 2.5,2.5c1.38071,0 2.5,-1.11929 2.5,-2.5c0,-1.38071 -1.11929,-2.5 -2.5,-2.5zM4.5,8c0,-1.933 1.567,-3.5 3.5,-3.5c1.933,0 3.5,1.567 3.5,3.5c0,1.933 -1.567,3.5 -3.5,3.5c-1.933,0 -3.5,-1.567 -3.5,-3.5z"></path></g></g></svg>